#Comment line ignore any data following # character 
#Hierarchical Translation and Rotation (.htr) file 
[Header]	
#Header keywords are followed by a single value 
FileType HTR		#Single word string
DataType HTRS		#Translation followed by rotation and scale data
FileVersion 1		#integer
NumSegments 84		#integer
NumFrames 2		#integer
DataFrameRate 30		#integer, data frame rate in this file
EulerRotationOrder ZYX
CalibrationUnits mm
RotationUnits Degrees
GlobalAxisofGravity Y
BoneLengthAxis Y
ScaleFactor 1.00
[SegmentNames&Hierarchy]
#CHILD	PARENT
MASTER GLOBAL
root MASTER
chest root
L_mid_tent01 root
R_mid_tent01 root
spine01 root
Bip01_Neck chest
L_humerus chest
R_humerus chest
weapon_bone chest
Bip01_Head Bip01_Neck
eye_left_bone Bip01_Head
eye_right_bone Bip01_Head
L_forearm L_humerus
L_front_hand L_forearm
L_weapon_bone L_forearm
L_front_hand01_01 L_front_hand
L_front_hand02_01 L_front_hand
L_front_hand03_01 L_front_hand
L_front_hand01_02 L_front_hand01_01
L_front_hand02_02 L_front_hand02_01
L_front_hand03_02 L_front_hand03_01
R_forearm R_humerus
R_front_hand R_forearm
R_weapon_bone R_forearm
R_front_hand01_01 R_front_hand
R_front_hand02_01 R_front_hand
R_front_hand03_01 R_front_hand
R_front_hand01_02 R_front_hand01_01
R_front_hand02_02 R_front_hand02_01
R_front_hand03_02 R_front_hand03_01
null_rope01_connect L_mid_tent01
Rope1_Seg01 null_rope01_connect
Rope1_Seg02 Rope1_Seg01
Rope1_Seg03 Rope1_Seg02
Rope1_Seg04 Rope1_Seg03
Rope1_Seg05 Rope1_Seg04
Rope1_Seg06 Rope1_Seg05
Rope1_Seg07 Rope1_Seg06
Rope1_Seg09 Rope1_Seg07
L_mid_hand01 Rope1_Seg09
L_mid_hand02 Rope1_Seg09
L_mid_hand03 Rope1_Seg09
null_rope02_connect R_mid_tent01
Rope2_Seg01 null_rope02_connect
Rope2_Seg02 Rope2_Seg01
Rope2_Seg03 Rope2_Seg02
Rope2_Seg04 Rope2_Seg03
Rope2_Seg05 Rope2_Seg04
Rope2_Seg06 Rope2_Seg05
Rope2_Seg07 Rope2_Seg06
Rope2_Seg09 Rope2_Seg07
R_mid_hand01 Rope2_Seg09
R_mid_hand02 Rope2_Seg09
R_mid_hand03 Rope2_Seg09
spine02 spine01
spine03 spine02
pelvis spine03
null_rope03_connect pelvis
null_rope04_connect pelvis
Rope3_Seg01 null_rope03_connect
Rope3_Seg02 Rope3_Seg01
Rope3_Seg03 Rope3_Seg02
Rope3_Seg04 Rope3_Seg03
Rope3_Seg05 Rope3_Seg04
Rope3_Seg06 Rope3_Seg05
Rope3_Seg07 Rope3_Seg06
Rope3_Seg08 Rope3_Seg07
Rope3_Seg09 Rope3_Seg08
R_rear_hand01 Rope3_Seg09
R_rear_hand02 Rope3_Seg09
R_rear_hand03 Rope3_Seg09
Rope4_Seg01 null_rope04_connect
Rope4_Seg02 Rope4_Seg01
Rope4_Seg03 Rope4_Seg02
Rope4_Seg04 Rope4_Seg03
Rope4_Seg05 Rope4_Seg04
Rope4_Seg06 Rope4_Seg05
Rope4_Seg07 Rope4_Seg06
Rope4_Seg08 Rope4_Seg07
Rope4_Seg09 Rope4_Seg08
L_rear_hand01 Rope4_Seg09
L_rear_hand02 Rope4_Seg09
L_rear_hand03 Rope4_Seg09
[BasePosition]
#SegmentName Tx, Ty, Tz, Rx, Ry, Rz, BoneLength
MASTER 0.000000 0.000000 0.000000 -90.000000 0.000000 0.000000 10.000000 
root 0.000000 0.000000 0.000000 0.000000 0.000000 0.000000 10.000000 
chest 0.000000 0.000000 0.000000 0.000000 0.000000 0.000000 10.000000 
L_mid_tent01 0.000000 0.000000 0.000000 0.000000 0.000000 0.000000 10.000000 
R_mid_tent01 0.000000 0.000000 0.000000 0.000000 0.000000 0.000000 10.000000 
spine01 0.000000 0.000000 0.000000 0.000000 0.000000 0.000000 10.000000 
Bip01_Neck 0.000000 0.000000 0.000000 0.000000 0.000000 0.000000 10.000000 
L_humerus 0.000000 0.000000 0.000000 0.000000 0.000000 0.000000 10.000000 
R_humerus 0.000000 0.000000 0.000000 0.000000 0.000000 0.000000 10.000000 
weapon_bone 0.000000 0.000000 0.000000 0.000000 0.000000 0.000000 10.000000 
Bip01_Head 0.000000 0.000000 0.000000 0.000000 0.000000 0.000000 10.000000 
eye_left_bone 0.000000 0.000000 0.000000 0.000000 0.000000 0.000000 10.000000 
eye_right_bone 0.000000 0.000000 0.000000 0.000000 0.000000 0.000000 10.000000 
L_forearm 0.000000 0.000000 0.000000 0.000000 0.000000 0.000000 10.000000 
L_front_hand 0.000000 0.000000 0.000000 0.000000 0.000000 0.000000 10.000000 
L_weapon_bone 0.000000 0.000000 0.000000 0.000000 0.000000 0.000000 10.000000 
L_front_hand01_01 0.000000 0.000000 0.000000 0.000000 0.000000 0.000000 10.000000 
L_front_hand02_01 0.000000 0.000000 0.000000 0.000000 0.000000 0.000000 10.000000 
L_front_hand03_01 0.000000 0.000000 0.000000 0.000000 0.000000 0.000000 10.000000 
L_front_hand01_02 0.000000 0.000000 0.000000 0.000000 0.000000 0.000000 10.000000 
L_front_hand02_02 0.000000 0.000000 0.000000 0.000000 0.000000 0.000000 10.000000 
L_front_hand03_02 0.000000 0.000000 0.000000 0.000000 0.000000 0.000000 10.000000 
R_forearm 0.000000 0.000000 0.000000 0.000000 0.000000 0.000000 10.000000 
R_front_hand 0.000000 0.000000 0.000000 0.000000 0.000000 0.000000 10.000000 
R_weapon_bone 0.000000 0.000000 0.000000 0.000000 0.000000 0.000000 10.000000 
R_front_hand01_01 0.000000 0.000000 0.000000 0.000000 0.000000 0.000000 10.000000 
R_front_hand02_01 0.000000 0.000000 0.000000 0.000000 0.000000 0.000000 10.000000 
R_front_hand03_01 0.000000 0.000000 0.000000 0.000000 0.000000 0.000000 10.000000 
R_front_hand01_02 0.000000 0.000000 0.000000 0.000000 0.000000 0.000000 10.000000 
R_front_hand02_02 0.000000 0.000000 0.000000 0.000000 0.000000 0.000000 10.000000 
R_front_hand03_02 0.000000 0.000000 0.000000 0.000000 0.000000 0.000000 10.000000 
null_rope01_connect 0.000000 0.000000 0.000000 0.000000 0.000000 0.000000 10.000000 
Rope1_Seg01 0.000000 0.000000 0.000000 0.000000 0.000000 0.000000 10.000000 
Rope1_Seg02 0.000000 0.000000 0.000000 0.000000 0.000000 0.000000 10.000000 
Rope1_Seg03 0.000000 0.000000 0.000000 0.000000 0.000000 0.000000 10.000000 
Rope1_Seg04 0.000000 0.000000 0.000000 0.000000 0.000000 0.000000 10.000000 
Rope1_Seg05 0.000000 0.000000 0.000000 0.000000 0.000000 0.000000 10.000000 
Rope1_Seg06 0.000000 0.000000 0.000000 0.000000 0.000000 0.000000 10.000000 
Rope1_Seg07 0.000000 0.000000 0.000000 0.000000 0.000000 0.000000 10.000000 
Rope1_Seg09 0.000000 0.000000 0.000000 0.000000 0.000000 0.000000 10.000000 
L_mid_hand01 0.000000 0.000000 0.000000 0.000000 0.000000 0.000000 10.000000 
L_mid_hand02 0.000000 0.000000 0.000000 0.000000 0.000000 0.000000 10.000000 
L_mid_hand03 0.000000 0.000000 0.000000 0.000000 0.000000 0.000000 10.000000 
null_rope02_connect 0.000000 0.000000 0.000000 0.000000 0.000000 0.000000 10.000000 
Rope2_Seg01 0.000000 0.000000 0.000000 0.000000 0.000000 0.000000 10.000000 
Rope2_Seg02 0.000000 0.000000 0.000000 0.000000 0.000000 0.000000 10.000000 
Rope2_Seg03 0.000000 0.000000 0.000000 0.000000 0.000000 0.000000 10.000000 
Rope2_Seg04 0.000000 0.000000 0.000000 0.000000 0.000000 0.000000 10.000000 
Rope2_Seg05 0.000000 0.000000 0.000000 0.000000 0.000000 0.000000 10.000000 
Rope2_Seg06 0.000000 0.000000 0.000000 0.000000 0.000000 0.000000 10.000000 
Rope2_Seg07 0.000000 0.000000 0.000000 0.000000 0.000000 0.000000 10.000000 
Rope2_Seg09 0.000000 0.000000 0.000000 0.000000 0.000000 0.000000 10.000000 
R_mid_hand01 0.000000 0.000000 0.000000 0.000000 0.000000 0.000000 10.000000 
R_mid_hand02 0.000000 0.000000 0.000000 0.000000 0.000000 0.000000 10.000000 
R_mid_hand03 0.000000 0.000000 0.000000 0.000000 0.000000 0.000000 10.000000 
spine02 0.000000 0.000000 0.000000 0.000000 0.000000 0.000000 10.000000 
spine03 0.000000 0.000000 0.000000 0.000000 0.000000 0.000000 10.000000 
pelvis 0.000000 0.000000 0.000000 0.000000 0.000000 0.000000 10.000000 
null_rope03_connect 0.000000 0.000000 0.000000 0.000000 0.000000 0.000000 10.000000 
null_rope04_connect 0.000000 0.000000 0.000000 0.000000 0.000000 0.000000 10.000000 
Rope3_Seg01 0.000000 0.000000 0.000000 0.000000 0.000000 0.000000 10.000000 
Rope3_Seg02 0.000000 0.000000 0.000000 0.000000 0.000000 0.000000 10.000000 
Rope3_Seg03 0.000000 0.000000 0.000000 0.000000 0.000000 0.000000 10.000000 
Rope3_Seg04 0.000000 0.000000 0.000000 0.000000 0.000000 0.000000 10.000000 
Rope3_Seg05 0.000000 0.000000 0.000000 0.000000 0.000000 0.000000 10.000000 
Rope3_Seg06 0.000000 0.000000 0.000000 0.000000 0.000000 0.000000 10.000000 
Rope3_Seg07 0.000000 0.000000 0.000000 0.000000 0.000000 0.000000 10.000000 
Rope3_Seg08 0.000000 0.000000 0.000000 0.000000 0.000000 0.000000 10.000000 
Rope3_Seg09 0.000000 0.000000 0.000000 0.000000 0.000000 0.000000 10.000000 
R_rear_hand01 0.000000 0.000000 0.000000 0.000000 0.000000 0.000000 10.000000 
R_rear_hand02 0.000000 0.000000 0.000000 0.000000 0.000000 0.000000 10.000000 
R_rear_hand03 0.000000 0.000000 0.000000 0.000000 0.000000 0.000000 10.000000 
Rope4_Seg01 0.000000 0.000000 0.000000 0.000000 0.000000 0.000000 10.000000 
Rope4_Seg02 0.000000 0.000000 0.000000 0.000000 0.000000 0.000000 10.000000 
Rope4_Seg03 0.000000 0.000000 0.000000 0.000000 0.000000 0.000000 10.000000 
Rope4_Seg04 0.000000 0.000000 0.000000 0.000000 0.000000 0.000000 10.000000 
Rope4_Seg05 0.000000 0.000000 0.000000 0.000000 0.000000 0.000000 10.000000 
Rope4_Seg06 0.000000 0.000000 0.000000 0.000000 0.000000 0.000000 10.000000 
Rope4_Seg07 0.000000 0.000000 0.000000 0.000000 0.000000 0.000000 10.000000 
Rope4_Seg08 0.000000 0.000000 0.000000 0.000000 0.000000 0.000000 10.000000 
Rope4_Seg09 0.000000 0.000000 0.000000 0.000000 0.000000 0.000000 10.000000 
L_rear_hand01 0.000000 0.000000 0.000000 0.000000 0.000000 0.000000 10.000000 
L_rear_hand02 0.000000 0.000000 0.000000 0.000000 0.000000 0.000000 10.000000 
L_rear_hand03 0.000000 0.000000 0.000000 0.000000 0.000000 0.000000 10.000000 
#Beginning of Data. Separated by tabs
#Fr	Tx	Ty	Tz	Rx	Ry	Rz	SF
[MASTER]
17 0.000000 0.000000 0.000000 0.001660 0.001660 0.001660 0.000000
18 0.000000 0.000000 0.000000 0.001660 0.001660 0.001660 0.000000
[root]
17 -16.502302 -11.966034 1463.590820 -73.532318 -19.780907 -93.293213 1463.732788
18 -16.502302 -8.080681 1460.809082 -75.207642 -22.898232 -94.476639 1460.924683
[chest]
17 -84.512650 -34.090519 0.000000 15.241412 1.529337 146.108063 91.129311
18 -84.512650 -34.090519 0.000000 15.323071 1.090874 150.413803 91.129311
[L_mid_tent01]
17 27.299173 22.178749 -249.918564 -23.736397 28.686924 26.148544 252.381516
18 27.299166 22.178789 -249.918579 -22.514158 29.621168 28.690435 252.381546
[R_mid_tent01]
17 23.228794 24.509907 226.238495 -179.900482 -28.782278 48.995079 228.744751
18 23.228794 24.509907 226.238495 -177.954453 -27.886803 45.965267 228.744751
[spine01]
17 -0.361383 -0.195265 0.000000 0.001925 0.001344 20.162365 0.410763
18 -0.361383 -0.195265 0.000000 0.001928 0.001340 20.372345 0.410763
[Bip01_Neck]
17 165.484543 71.581718 0.000119 176.643677 -1.657967 43.431911 180.302734
18 165.484543 71.581718 0.000119 176.643677 -1.657967 43.431911 180.302734
[L_humerus]
17 -13.983130 -135.272980 -120.471481 156.317398 70.210068 -112.010254 181.680161
18 -13.983130 -135.272980 -120.471481 150.750443 75.399826 -117.870941 181.680161
[R_humerus]
17 -13.983309 -135.273102 125.287651 -172.382263 -66.903831 -92.553993 184.909012
18 -13.983309 -135.273102 125.287651 -174.142929 -73.297783 -90.816002 184.909012
[weapon_bone]
17 235.964890 -300.705902 0.000000 0.000000 -89.951546 -128.212341 382.234833
18 235.964890 -300.705902 0.000000 0.000000 -89.951546 -128.212341 382.234833
[Bip01_Head]
17 213.444199 185.715561 11.776937 4.962490 2.797846 -43.898743 283.173767
18 213.444183 185.715561 11.776937 4.962490 2.797846 -43.898743 283.173767
[eye_left_bone]
17 -24.626970 125.451866 -64.772606 0.000000 -90.000000 -99.840431 143.318359
18 -24.626970 125.451866 -64.772606 0.000000 -90.000000 -99.840431 143.318359
[eye_right_bone]
17 -24.626970 125.451866 64.327362 0.000000 -89.965736 80.156380 143.117676
18 -24.626970 125.451866 64.327362 0.000000 -89.965736 80.156380 143.117676
[L_forearm]
17 322.776093 0.000000 -0.000119 0.000242 0.002335 -78.186638 322.776093
18 322.776093 0.000000 -0.000119 0.000388 0.002315 -70.986488 322.776093
[L_front_hand]
17 241.149185 -0.042021 -3.300071 -131.400223 -1.835005 -27.423822 241.171753
18 241.149185 -0.042021 -3.300071 -49.945679 -1.834633 -27.425125 241.171753
[L_weapon_bone]
17 156.183838 0.000000 0.000000 0.000014 0.000007 0.000001 156.183838
18 156.183838 0.000000 0.000000 0.000014 0.000007 0.000001 156.183838
[L_front_hand01_01]
17 86.095154 20.947098 -0.655860 -0.366594 -0.477154 75.385574 88.609184
18 86.095154 20.947098 -0.655860 -0.366594 -0.477154 75.385574 88.609184
[L_front_hand02_01]
17 86.935165 -11.437475 24.513514 154.399796 -59.883835 -61.369587 91.046425
18 86.935165 -11.437475 24.513514 154.399796 -59.883835 -61.369587 91.046425
[L_front_hand03_01]
17 86.637497 -14.123976 -20.424902 -153.913849 58.118122 -62.702866 90.126129
18 86.637497 -14.123976 -20.424902 -153.913849 58.118122 -62.702866 90.126129
[L_front_hand01_02]
17 71.020905 -0.000179 0.000030 0.000334 -0.002323 -106.379684 71.020905
18 71.020905 -0.000179 0.000030 0.000334 -0.002323 -106.379684 71.020905
[L_front_hand02_02]
17 71.020927 -0.000119 0.000060 0.000334 -0.002323 -106.379684 71.020927
18 71.020927 -0.000119 0.000060 0.000334 -0.002323 -106.379684 71.020927
[L_front_hand03_02]
17 71.020905 -0.000060 0.000060 0.000334 -0.002323 -106.379684 71.020905
18 71.020905 -0.000060 0.000060 0.000334 -0.002323 -106.379684 71.020905
[R_forearm]
17 322.776428 -0.000060 0.000030 0.179756 -0.111818 -59.502136 322.776428
18 322.776428 -0.000060 0.000030 0.171866 -0.127178 -53.859924 322.776428
[R_front_hand]
17 238.847015 -0.006795 2.210259 95.761040 -10.646152 -26.314425 238.857239
18 238.847015 -0.006795 2.210259 43.441864 -10.645250 -26.313211 238.857239
[R_weapon_bone]
17 155.664093 0.002503 -0.000030 0.003487 0.001180 -90.988930 155.664078
18 155.664093 0.002503 -0.000030 0.003487 0.001180 -90.988930 155.664078
[R_front_hand01_01]
17 87.624611 14.231146 22.918642 -154.633484 -59.950619 61.746037 91.683487
18 87.624611 14.231146 22.918642 -154.633484 -59.950619 61.746037 91.683487
[R_front_hand02_01]
17 89.356956 14.367283 -19.491137 154.602661 58.302849 63.744389 92.579636
18 89.356956 14.367283 -19.491137 154.602661 58.302849 63.744389 92.579636
[R_front_hand03_01]
17 87.286232 -22.307278 -0.143439 0.162155 -0.423168 -75.767921 90.091743
18 87.286232 -22.307278 -0.143439 0.162155 -0.423168 -75.767921 90.091743
[R_front_hand01_02]
17 71.020905 0.000060 0.000119 0.002323 -0.000334 106.381714 71.020905
18 71.020905 0.000060 0.000119 0.002323 -0.000334 106.381714 71.020905
[R_front_hand02_02]
17 71.020844 -0.000030 -0.000119 0.002323 -0.000334 106.381714 71.020836
18 71.020844 -0.000030 -0.000119 0.002323 -0.000334 106.381714 71.020836
[R_front_hand03_02]
17 71.020905 0.000000 0.000030 0.002323 -0.000334 106.381714 71.020905
18 71.020905 0.000000 0.000030 0.002323 -0.000334 106.381714 71.020905
[null_rope01_connect]
17 328.732483 0.000000 -0.000238 -120.619080 -65.265244 -164.178879 328.732483
18 328.732483 0.000000 -0.000238 -118.980461 -62.841042 -165.075684 328.732483
[Rope1_Seg01]
17 -0.000014 -0.000027 0.000055 -34.203331 23.344578 -102.401070 0.000063
18 -0.000012 -0.000024 0.000049 -32.148018 22.890118 -105.320511 0.000056
[Rope1_Seg02]
17 139.999863 -0.000179 0.000000 12.804444 -6.701210 0.181130 139.999863
18 139.999863 -0.000179 0.000000 18.842398 -10.051023 0.413170 139.999863
[Rope1_Seg03]
17 139.999924 0.000060 -0.000060 6.970012 -5.468179 1.097058 139.999924
18 139.999924 0.000060 -0.000060 8.140738 -7.617896 1.983289 139.999924
[Rope1_Seg04]
17 139.999924 -0.000060 -0.000119 4.056443 -4.492609 1.516513 139.999924
18 139.999924 -0.000060 -0.000119 4.590950 -5.650115 1.762319 139.999924
[Rope1_Seg05]
17 139.999832 0.000119 -0.000060 0.989711 -4.286288 3.632703 139.999832
18 139.999832 0.000119 -0.000060 -2.691956 -2.355269 5.729846 139.999832
[Rope1_Seg06]
17 139.999954 0.000119 -0.000060 0.201736 -3.855942 3.909893 139.999954
18 139.999954 0.000119 -0.000060 -4.694727 -1.158594 8.243591 139.999954
[Rope1_Seg07]
17 139.999985 0.000060 0.000000 0.370521 -3.005456 2.728121 139.999985
18 139.999985 0.000060 0.000000 -1.850362 -1.975359 5.447669 139.999985
[Rope1_Seg09]
17 121.602913 0.000119 -0.000089 -89.793175 -1.359789 0.847147 121.602913
18 121.602913 0.000119 -0.000089 -89.793175 -1.359789 0.847147 121.602913
[L_mid_hand01]
17 103.859421 1.038730 8.195221 109.203865 -41.086700 -13.424594 104.187431
18 103.859421 1.038730 8.195221 109.630608 -42.428204 -14.062105 104.187431
[L_mid_hand02]
17 105.572853 -4.139662 -10.864139 -146.975464 31.757511 -38.401608 106.211075
18 105.572853 -4.139662 -10.864139 -147.734787 32.524982 -39.820679 106.211075
[L_mid_hand03]
17 104.641464 17.579376 -3.913581 -14.157615 12.442541 44.406353 106.179977
18 104.641464 17.579376 -3.913581 -13.849796 12.791806 45.822666 106.179977
[null_rope02_connect]
17 328.732849 0.000179 -0.000119 -135.060440 49.869942 -19.544970 328.732849
18 328.732849 0.000179 -0.000119 -133.291641 52.991402 -23.172132 328.732849
[Rope2_Seg01]
17 0.000095 0.000153 0.000049 62.817375 -13.620748 -68.280380 0.000186
18 0.000095 0.000153 0.000052 59.266346 -17.641418 -67.445923 0.000187
[Rope2_Seg02]
17 139.999741 -0.000060 -0.000119 2.060650 2.888856 -3.138279 139.999756
18 139.999741 -0.000060 -0.000119 3.099841 2.139998 -4.008834 139.999756
[Rope2_Seg03]
17 140.000107 0.000030 0.000000 2.685655 1.182195 -2.652312 140.000107
18 140.000107 0.000030 0.000000 3.100821 0.848667 -3.132359 140.000107
[Rope2_Seg04]
17 139.999802 0.000000 -0.000060 2.589232 2.058742 -2.777260 139.999802
18 139.999802 0.000000 -0.000060 3.348139 1.476592 -3.379853 139.999802
[Rope2_Seg05]
17 139.999985 -0.000060 0.000119 0.302251 6.544676 -3.236130 139.999985
18 139.999985 -0.000060 0.000119 3.182372 3.489888 -3.837296 139.999985
[Rope2_Seg06]
17 139.999893 -0.000030 -0.000119 0.103294 4.164292 -1.969316 139.999893
18 139.999893 -0.000030 -0.000119 2.390431 1.965946 -2.366925 139.999893
[Rope2_Seg07]
17 139.999893 0.000060 -0.000060 0.493291 2.197999 -1.190930 139.999893
18 139.999893 0.000060 -0.000060 1.779241 1.009068 -1.481495 139.999893
[Rope2_Seg09]
17 121.338966 0.000089 -0.000060 33.793236 -1.359788 -0.847141 121.338966
18 121.338966 0.000089 -0.000060 33.793236 -1.359788 -0.847141 121.338966
[R_mid_hand01]
17 104.680779 11.144459 -10.335981 -34.514381 34.853710 42.458721 105.778534
18 104.680779 11.144459 -10.335981 -35.659065 33.675755 40.429829 105.778534
[R_mid_hand02]
17 104.070427 2.443552 8.231699 68.611877 -47.139297 16.550779 104.424065
18 104.070427 2.443552 8.231699 69.379761 -45.224785 15.491559 104.424065
[R_mid_hand03]
17 106.028137 -11.221827 -5.996406 -171.008881 13.064262 -52.295349 106.788818
18 106.028137 -11.221827 -5.996406 -170.548004 12.734509 -50.222614 106.788818
[spine02]
17 129.756927 0.001550 0.000119 -0.165611 -4.269022 -5.212945 129.756927
18 129.756927 0.001550 0.000119 -0.104724 -4.238194 -6.094690 129.756927
[spine03]
17 78.614006 0.082953 -4.898976 1.595022 4.367515 11.694082 78.766548
18 78.614014 0.082806 -4.898980 1.630678 4.292842 12.240922 78.766556
[pelvis]
17 169.435242 0.051022 0.000000 -0.007778 -0.031049 4.384608 169.435257
18 169.435242 0.051022 0.000000 -0.013343 -0.054662 5.495808 169.435257
[null_rope03_connect]
17 -1.257226 -2.466202 137.391083 7.479454 -73.846649 71.725861 137.418976
18 -1.257226 -2.466202 137.391083 4.873761 -75.724937 76.557533 137.418976
[null_rope04_connect]
17 -1.259640 -2.480268 -137.844437 7.479454 -73.846649 71.725861 137.872513
18 -1.259640 -2.480268 -137.844437 4.873761 -75.724937 76.557533 137.872513
[Rope3_Seg01]
17 -0.000032 0.000000 -0.000098 -130.614243 0.493588 -76.592262 0.000103
18 -0.000032 0.000000 -0.000104 -130.623032 0.159000 -79.307663 0.000108
[Rope3_Seg02]
17 139.999924 -0.000119 0.000060 0.329030 -4.611262 -3.333309 139.999924
18 139.999924 -0.000119 0.000060 0.113210 -2.227090 -2.429512 139.999924
[Rope3_Seg03]
17 139.999924 -0.000119 0.000119 -0.063637 -1.336896 -4.158120 139.999924
18 139.999924 -0.000119 0.000119 -0.046179 0.539773 -2.803071 139.999924
[Rope3_Seg04]
17 139.999924 0.000119 0.000000 -0.202590 -0.854856 -3.127927 139.999924
18 139.999924 0.000119 0.000000 -0.210050 1.105263 -2.458680 139.999924
[Rope3_Seg05]
17 139.999924 -0.000238 0.000060 1.661874 -5.946463 4.775562 139.999924
18 139.999924 -0.000238 0.000060 0.535186 -4.781667 2.756567 139.999924
[Rope3_Seg06]
17 139.999893 -0.000119 -0.000060 1.902934 -6.529925 7.210779 139.999893
18 139.999893 -0.000119 -0.000060 0.910363 -7.558616 5.470306 139.999893
[Rope3_Seg07]
17 139.999771 0.000060 -0.000119 1.190137 -3.241388 3.481565 139.999771
18 139.999771 0.000060 -0.000119 0.869388 -4.851641 3.598937 139.999771
[Rope3_Seg08]
17 139.999985 -0.000060 0.000000 0.905834 -1.814349 1.946207 139.999985
18 139.999985 -0.000060 0.000000 0.741095 -2.418833 1.766966 139.999985
[Rope3_Seg09]
17 90.185997 -0.000179 -0.000060 89.793228 -1.359877 -0.847183 90.185997
18 90.185997 -0.000179 -0.000060 89.793228 -1.359877 -0.847183 90.185997
[R_rear_hand01]
17 103.366196 -6.073594 -10.757982 -166.071487 20.559361 -44.173790 104.101845
18 103.366196 -6.073594 -10.757982 -165.364609 20.073744 -42.141060 104.101845
[R_rear_hand02]
17 100.509819 12.039542 -7.992327 -29.245224 26.638008 41.706211 101.543350
18 100.509819 12.039542 -7.992327 -30.084066 25.665678 39.802120 101.543350
[R_rear_hand03]
17 101.539970 5.215704 5.435467 81.983536 -44.720295 9.521895 101.819031
18 101.539970 5.215704 5.435467 82.244080 -42.772614 9.150361 101.819031
[Rope4_Seg01]
17 -0.000032 0.000000 -0.000098 49.100288 3.152745 -100.297134 0.000103
18 -0.000032 0.000000 -0.000104 49.009911 1.888310 -101.626930 0.000108
[Rope4_Seg02]
17 139.999985 0.000060 0.000119 0.280769 -4.922749 -6.830950 139.999985
18 139.999985 0.000060 0.000119 0.071056 -1.584370 -5.372818 139.999985
[Rope4_Seg03]
17 139.999924 0.000000 -0.000238 -0.273824 -3.733226 -6.138181 139.999924
18 139.999924 0.000000 -0.000238 -0.192849 -0.437087 -4.806265 139.999924
[Rope4_Seg04]
17 139.999985 0.000000 0.000119 -0.671969 -0.994898 -4.504382 139.999985
18 139.999985 0.000000 0.000119 -0.414498 3.883077 -3.803681 139.999985
[Rope4_Seg05]
17 139.999802 -0.000060 -0.000119 -0.386755 -9.328977 -7.723572 139.999802
18 139.999802 -0.000060 -0.000119 0.228449 -7.146021 -4.423932 139.999802
[Rope4_Seg06]
17 139.999924 0.000000 0.000060 -0.797206 -15.546374 -10.827871 139.999924
18 139.999924 0.000000 0.000060 2.276429 -19.159458 -6.003398 139.999924
[Rope4_Seg07]
17 139.999802 0.000000 0.000000 -3.048448 -9.365568 -7.503277 139.999802
18 139.999802 0.000000 0.000000 2.221302 -13.560089 -4.288277 139.999802
[Rope4_Seg08]
17 139.999924 0.000000 0.000119 -5.183335 -5.211529 -4.789133 139.999924
18 139.999924 0.000000 0.000119 -0.029480 -7.538178 -2.311193 139.999924
[Rope4_Seg09]
17 90.185791 0.000060 0.000060 -135.617828 2.228885 0.850567 90.185791
18 90.185791 0.000060 0.000060 -135.617828 2.228885 0.850567 90.185791
[L_rear_hand01]
17 101.696655 -8.392275 -7.654577 -29.807377 -26.000988 139.554398 102.329041
18 101.696655 -8.392275 -7.654577 -28.796085 -27.129269 137.298477 102.329041
[L_rear_hand02]
17 102.726799 -1.568258 5.773216 82.157768 43.437939 170.726135 102.900848
18 102.726799 -1.568258 5.773216 81.840157 45.725391 170.277420 102.900848
[L_rear_hand03]
17 104.552910 9.721220 -10.420293 -165.604721 -20.244781 -137.169205 105.519653
18 104.552910 9.721220 -10.420293 -166.442245 -20.805420 -134.771164 105.519653
